{"title":"Bhoothnath Returns 2014 [Scam Rip] [Movies2Fun]","uid":9940360,"size":726233702,"categoryP":"video","categoryS":"movies","magnet":"?xt=urn:btih:a602bba791e333fe4e2233454c44891c80d1cd90&amp;dn=Bhoothnath+Returns+2014+%5BScam+Rip%5D+%5BMovies2Fun%5D&amp;tr=udp%3A%2F%2Ftracker.openbittorrent.com%3A80&amp;tr=udp%3A%2F%2Fopen.demonii.com%3A1337&amp;tr=udp%3A%2F%2Ftracker.coppersurfer.tk%3A6969&amp;tr=udp%3A%2F%2Fexodus.desync.com%3A6969","seeders":1,"leechers":0,"uploader":"taztoor","files":1,"time":1397230341,"description":"General\nFormat : AVI\nFormat/Info : Audio Video Interleave\nFile size : 693 MiB\nDuration : 2h 12mn\nOverall bit rate : 732 Kbps\n\nVideo\nID : 0\nFormat : MPEG-4 Visual\nFormat profile : Advanced Simple@L5\nFormat settings, BVOP : 2\nFormat settings, QPel : No\nFormat settings, GMC : No warppoints\nFormat settings, Matrix : Default (H.263)\nCodec ID : XVID\nCodec ID/Hint : XviD\nDuration : 2h 12mn\nBit rate : 646 Kbps\nWidth : 640 pixels\nHeight : 272 pixels\nDisplay aspect ratio : 2.35:1\nFrame rate : 25.000 fps\nColor space : YUV\nChroma subsampling : 4:2:0\nBit depth : 8 bits\nScan type : Progressive\nCompression mode : Lossy\nBits/(Pixel*Frame) : 0.148\nStream size : 611 MiB (88%)\nWriting library : XviD 1.2.1 (UTC 2008-12-04)\n\nAudio\nID : 1\nFormat : MPEG Audio\nFormat version : Version 1\nFormat profile : Layer 3\nMode : Joint stereo\nMode extension : MS Stereo\nCodec ID : 55\nCodec ID/Hint : MP3\nDuration : 2h 12mn\nBit rate mode : Constant\nBit rate : 80.0 Kbps\nChannel count : 2 channels\nSampling rate : 32.0 KHz\nCompression mode : Lossy\nStream size : 75.7 MiB (11%)\nAlignment : Aligned on interleaves\nInterleave, duration : 160 ms (4.00 video frames)\nInterleave, preload duration : 216 ms\nTitle : VTS_01_1 Tc0 L2 2ch 48 128 DELAY 0ms\nWriting library : LAME3.99r\nEncoding settings : -m j -V 4 -q 2 -lowpass 13.5 -b 80","torrent":{"xt":"urn:btih:a602bba791e333fe4e2233454c44891c80d1cd90","amp;dn":"Bhoothnath+Returns+2014+%5BScam+Rip%5D+%5BMovies2Fun%5D","amp;tr":["udp%3A%2F%2Ftracker.openbittorrent.com%3A80","udp%3A%2F%2Fopen.demonii.com%3A1337","udp%3A%2F%2Ftracker.coppersurfer.tk%3A6969","udp%3A%2F%2Fexodus.desync.com%3A6969"],"infoHash":"a602bba791e333fe4e2233454c44891c80d1cd90","infoHashBuffer":{"type":"Buffer","data":[166,2,187,167,145,227,51,254,78,34,51,69,76,68,137,28,128,209,205,144]},"announce":[],"urlList":[]}}